<svg width="750" height="220" viewBox="0 0 750 220" fill="black" xmlns="http://www.w3.org/2000/svg">
    <style>
        .big { font: 80px sans-serif; fill: white; }
        .small { font: bold 30px sans-serif; fill: black; }
    </style>

    <text x="20" y="60" class="big">der verein</text>

    <circle cx="42" cy="90" r="20" fill="white" />
    <text x="34" y="98" class="small">s</text>

    <circle cx="92" cy="90" r="20" fill="white" />
    <text x="82" y="98" class="small">u</text>

    <circle cx="142" cy="90" r="20" fill="white" />
    <text x="134" y="98" class="small">b</text>

    <circle cx="192" cy="90" r="20" fill="white" />
    <text x="183" y="98" class="small">k</text>

    <circle cx="242" cy="90" r="20" fill="white" />
    <text x="233" y="98" class="small">u</text>

    <circle cx="292" cy="90" r="20" fill="white" />
    <text x="287" y="98" class="small">l</text>

    <circle cx="342" cy="90" r="20" fill="white" />
    <text x="337" y="98" class="small">t</text>

    <circle cx="392" cy="90" r="20" fill="white" />
    <text x="383" y="98" class="small">u</text>

    <circle cx="442" cy="90" r="20" fill="white" />
    <text x="436" y="98" class="small">r</text>

    <circle cx="492" cy="90" r="20" fill="white" />
    <text x="483" y="98" class="small">e</text>

    <circle cx="542" cy="90" r="20" fill="white" />
    <text x="537" y="98" class="small">l</text>

    <circle cx="592" cy="90" r="20" fill="white" />
    <text x="587" y="98" class="small">l</text>

    <circle cx="642" cy="90" r="20" fill="white" />
    <text x="633" y="98" class="small">e</text>

    <circle cx="692" cy="90" r="20" fill="white" />
    <text x="683" y="98" class="small">s</text>

    <circle cx="42" cy="140" r="20" fill="white" />
    <text x="33" y="148" class="small">h</text>

    <circle cx="92" cy="140" r="20" fill="white" />
    <text x="87" y="148" class="small">i</text>

    <circle cx="142" cy="140" r="20" fill="white" />
    <text x="138" y="148" class="small">l</text>

    <circle cx="192" cy="140" r="20" fill="white" />
    <text x="186" y="148" class="small">f</text>

    <circle cx="242" cy="140" r="20" fill="white" />
    <text x="233" y="148" class="small">s</text>

    <circle cx="292" cy="140" r="20" fill="white" />
    <text x="280" y="148" class="small">w</text>

    <circle cx="342" cy="140" r="20" fill="white" />
    <text x="333" y="148" class="small">e</text>

    <circle cx="392" cy="140" r="20" fill="white" />
    <text x="386" y="148" class="small">r</text>

    <circle cx="442" cy="140" r="20" fill="white" />
    <text x="434" y="148" class="small">k</text>


    <circle cx="42" cy="190" r="20" fill="white" />
    <text x="30" y="198" class="small">e.</text>

    <circle cx="92" cy="190" r="20" fill="white" />
    <text x="80" y="198" class="small">V.</text>


</svg>