<?xml version="1.0" encoding="utf-8" standalone="no"?><!-- Generator: Adobe Illustrator 16.0.3, SVG Export Plug-In . SVG Version: 6.00 Build 0)  --><!DOCTYPE svg PUBLIC "-//W3C//DTD SVG 1.1//EN" "http://www.w3.org/Graphics/SVG/1.1/DTD/svg11.dtd">
<svg xmlns="http://www.w3.org/2000/svg" xmlns:xlink="http://www.w3.org/1999/xlink" enable-background="new 0 0 555 202" height="202px" id="Ebene_1" version="1.1" viewBox="0 0 555 202" width="555px" x="0px" xml:space="preserve" y="0px">
<rect fill="#FFFFFF" height="233.989" width="586.471" x="-18.395" y="-14.404"/>
<g>
	<defs>
		<rect height="162.683" id="SVGID_1_" width="487.809" x="33.595" y="29.094"/>
	</defs>
	<clipPath id="SVGID_2_">
		<use overflow="visible" xlink:href="#SVGID_1_"/>
	</clipPath>
	<path clip-path="url(#SVGID_2_)" d="M506.542,103.408c7.395,0,11.092,0.965,11.092,7.314   c0,6.188-7.32,9.081-14.123,9.081c-7.542,0-12.865-1.849-12.865-8.358C490.646,103.971,496.191,103.408,506.542,103.408    M501.293,64.269c-6.284,0-12.126,4.582-12.126,12.136c0,3.536,0.591,5.625,2.588,8.519c-3.623,1.447-6.654,4.34-6.654,9.082   c0,4.581,2.883,8.117,7.394,9.242v0.16v-0.08c-3.549,0.723-7.172,3.055-7.172,7.716c0,9.483,10.942,11.251,17.302,11.251   c8.502,0,17.671-3.375,17.671-14.467c0-9.402-5.102-12.617-12.791-12.617c-4.363,0-8.578,0.321-12.865,0.321   c-4.141,0-6.433-0.563-6.433-3.536c0-2.732,3.105-4.903,5.249-5.063c2.514,1.607,5.546,2.491,8.577,2.491   c7.024,0,12.57-4.982,12.57-12.858c0-2.653-0.593-4.742-1.849-6.993c0.147-0.964,1.33-2.411,2.218-2.411   c2.588,0,0.074,5.305,3.992,5.305c1.701,0,2.44-1.528,2.44-3.537c0-3.055-2.219-4.662-4.436-4.662   c-2.588,0-4.215,1.447-5.473,3.295C508.908,65.074,505.212,64.269,501.293,64.269 M496.265,76.084c0-4.983,0.443-9.806,5.842-9.806   c5.323,0,5.397,6.269,5.397,10.85c0,4.259-0.443,10.287-5.693,10.287C496.487,87.416,496.265,80.343,496.265,76.084    M455.896,102.605h-6.358v2.008h20.037v-2.008h-6.137V85.004c0-8.68,4.361-17.842,8.207-17.842c1.108,0,1.848,0.884,1.848,2.008   c0,1.045-0.37,2.974-0.37,4.099c0,2.492,1.702,4.099,3.698,4.099c2.662,0,3.844-2.17,3.844-5.384c0-4.662-2.364-7.716-6.728-7.716   c-5.62,0-8.8,5.545-10.353,10.207h-0.146v-9.243h-13.9v2.01h6.358V102.605z M419.592,79.941c0-4.982,1.626-13.663,7.984-13.663   c7.543,0,7.839,7.876,7.839,13.663H419.592z M444.287,82.432c0-10.769-6.433-18.163-15.897-18.163   c-10.795,0-17.228,9.805-17.228,20.655c0,11.332,5.62,20.654,16.711,20.654c8.133,0,13.16-2.813,16.341-12.135l-1.627-0.643   c-1.924,5.787-5.324,10.288-12.052,10.288c-9.539,0-10.943-8.761-10.943-20.012v-0.644H444.287z M378.113,81.146   c0-11.894,5.397-14.386,8.724-14.386c6.951,0,8.355,7.876,8.355,18.164c0,11.493-2.366,18.164-8.355,18.164   c-7.467,0-8.724-8.359-8.724-15.351V81.146z M370.792,104.613h7.542v-5.705h0.148c1.627,4.18,5.62,6.67,10.203,6.67   c10.204,0,14.493-9.724,14.493-20.654c0-14.788-6.138-20.655-13.975-20.655c-4.88,0-8.504,1.768-10.722,6.832h-0.148v-23.95   h-13.013v2.009h5.471V104.613z M357.041,66.76c-3.402-1.206-6.804-2.491-10.722-2.491c-6.358,0-11.831,4.18-11.831,11.976   c0,13.823,19.816,9.804,19.816,20.252c0,4.662-4.289,7.074-8.06,7.074c-7.246,0-10.499-6.109-10.573-13.583h-2.218v13.101   c4.141,1.606,8.281,2.49,12.644,2.49c6.58,0,13.975-4.018,13.975-12.215c0-16.477-20.26-11.091-20.26-21.056   c0-3.858,2.81-5.546,6.137-5.546c6.507,0,8.43,4.983,9.316,10.448h1.775V66.76z M283.768,102.605v2.008h19.742v-2.008h-5.842   V81.709c0-7.474,3.475-14.546,10.352-14.546c5.176,0,5.915,4.42,5.915,8.84v26.603h-5.841v2.008h19.224v-2.008h-5.842V75.602   c0-8.037-3.622-11.333-10.869-11.333c-6.063,0-10.498,3.054-12.791,8.519h-0.147v-7.555h-13.9v2.01h6.358v35.363H283.768z    M266.392,52.696c0,2.571,2.07,4.822,4.436,4.822c2.366,0,4.437-2.25,4.437-4.822c0-2.652-2.071-4.822-4.437-4.822   C268.462,47.874,266.392,50.044,266.392,52.696 M267.058,102.605h-6.359v2.008h20.259v-2.008h-6.359V65.233h-13.9v2.01h6.359   V102.605z M230.458,79.941c0-4.982,1.626-13.663,7.985-13.663c7.542,0,7.838,7.876,7.838,13.663H230.458z M255.153,82.432   c0-10.769-6.433-18.163-15.897-18.163c-10.795,0-17.228,9.805-17.228,20.655c0,11.332,5.619,20.654,16.71,20.654   c8.132,0,13.161-2.813,16.341-12.135l-1.627-0.643c-1.922,5.787-5.323,10.288-12.052,10.288c-9.538,0-10.942-8.761-10.942-20.012   v-0.644H255.153z M168.719,105.578h1.626l14.418-52.641h0.148l12.94,52.641h1.626l17.598-56.418h6.211v-2.009H207.61v2.009h7.098   L202.36,89.746h-0.147l-9.687-40.586h7.542v-2.009H176.26v2.009h7.098l-10.647,40.586h-0.148L161.62,49.16h7.542v-2.009H146.98   v2.009h5.767L168.719,105.578z" fill="#2A4A94"/>
	<path clip-path="url(#SVGID_2_)" d="M470.082,125.01h2.196v-4.668h0.04l3.323,4.668h2.631l-3.799-5.252l3.481-4.008   h-2.631l-3.046,3.541v-7.704h-2.196V125.01z M464.108,113.727h2.195v-2.139h-2.195V113.727z M464.108,125.01h2.195v-9.26h-2.195   V125.01z M461.259,123.551c-0.315,0.078-0.652,0.156-1.009,0.156c-1.345,0-1.483-0.973-1.483-2.082v-4.377h2.789v-1.498h-2.789   v-3.502l-2.195,1.305v2.197h-1.841v1.498h1.841v5.428c0,1.382,0.396,2.549,2.888,2.549c0.594,0,1.207-0.059,1.8-0.155V123.551z    M444.443,125.01h2.196v-4.007c0-1.459,0.732-3.443,2.216-3.443c0.772,0,0.969,0.272,0.969,2.159v5.291h2.197v-6.418   c0-2.121-1.168-3.057-2.553-3.057c-1.74,0-2.492,1.246-2.789,1.946h-0.04v-1.731h-2.196V125.01z M435.602,122.599   c0-1.245,1.701-1.673,3.125-1.673c0,1.264-0.534,2.781-1.958,2.781C436.017,123.707,435.602,123.318,435.602,122.599    M438.727,125.01h2.098v-6.594c0-1.888-1.089-2.881-3.423-2.881c-2.395,0-3.581,1.168-3.581,2.939h2.137   c0-0.623,0.238-1.42,1.444-1.42c1.088,0,1.325,0.777,1.325,1.691v0.914c-1.305,0.04-5.262,0.059-5.262,3.133   c0,1.498,1.188,2.432,2.77,2.432c1.504,0,2.156-0.681,2.453-1.283h0.039V125.01z M417.936,125.01h2.196v-4.007   c0-1.459,0.632-3.443,1.898-3.443c0.771,0,0.97,0.272,0.97,2.159v5.291h2.195v-4.007c0-1.459,0.634-3.443,1.899-3.443   c0.771,0,0.97,0.272,0.97,2.159v5.291h2.195v-6.418c0-2.121-1.167-3.057-2.551-3.057c-1.504,0-2.374,1.148-2.652,1.85h-0.039   c-0.277-1.285-1.246-1.85-2.373-1.85c-1.544,0-2.217,1.052-2.474,1.635h-0.039v-1.42h-2.196V125.01z M408.815,120.381   c0-1.732,0.237-3.326,1.82-3.326c1.582,0,1.819,1.594,1.819,3.326c0,1.731-0.237,3.326-1.819,3.326   C409.053,123.707,408.815,122.112,408.815,120.381 M410.636,125.225c2.709,0,4.154-1.809,4.154-4.844s-1.445-4.846-4.154-4.846   c-2.711,0-4.154,1.811-4.154,4.846S407.925,125.225,410.636,125.225 M397.44,113.201h1.82c1.306,0,2.038,0.76,2.038,2.16   c0,1.984-1.504,2.275-2.948,2.275h-0.91V113.201z M395.126,125.01h2.314v-5.758h0.91c2.117,0,2.394,0.72,2.868,2.86l0.633,2.897   h2.354l-0.83-3.773c-0.317-1.42-0.534-2.568-2.434-2.977v-0.039c1.404-0.33,2.71-0.992,2.71-3.113c0-2.626-1.819-3.521-4.392-3.521   h-4.135V125.01z M377.719,120.381c0-1.537,0.178-3.172,1.622-3.172c1.266,0,1.662,1.459,1.662,3.172c0,1.479-0.436,3.17-1.662,3.17   C377.956,123.551,377.719,121.84,377.719,120.381 M381.003,125.01h2.195v-13.423h-2.195v5.272h-0.04   c-0.276-0.467-0.949-1.324-2.354-1.324c-2.256,0-3.226,2.16-3.226,4.846c0,2.588,0.713,4.844,3.226,4.844   c1.188,0,2.156-0.973,2.354-1.498h0.04V125.01z M364.702,125.01h2.194v-4.007c0-1.459,0.733-3.443,2.218-3.443   c0.771,0,0.969,0.272,0.969,2.159v5.291h2.196v-6.418c0-2.121-1.168-3.057-2.553-3.057c-1.741,0-2.492,1.246-2.789,1.946h-0.041   v-1.731h-2.194V125.01z M358.807,125.01h2.196v-9.26h-2.196v4.008c0,1.479-0.752,3.443-2.216,3.443   c-0.771,0-0.969-0.271-0.969-2.159v-5.292h-2.197v6.42c0,2.121,1.168,3.055,2.554,3.055c1.72,0,2.491-1.246,2.788-1.945h0.04   V125.01z M333.961,125.01h2.196v-4.007c0-1.459,0.731-3.443,2.216-3.443c0.771,0,0.969,0.272,0.969,2.159v5.291h2.196v-6.418   c0-2.121-1.167-3.057-2.553-3.057c-1.74,0-2.492,1.246-2.789,1.946h-0.039v-1.731h-2.196V125.01z M325.336,118.514   c0.06-0.546,0.495-1.596,1.78-1.596c1.365,0,1.662,1.012,1.662,1.596H325.336z M330.618,123.357c-0.396,0.136-1.108,0.35-1.8,0.35   c-2.651,0-3.542-2.606-3.542-3.891h5.579v-0.525c0-2.256-1.188-3.756-3.581-3.756c-2.849,0-4.035,1.771-4.035,4.359   c0,3.404,1.701,5.33,4.747,5.33c1.01,0,1.841-0.117,2.632-0.369V123.357z M314.93,120.381c0-1.557,0.416-3.463,1.741-3.463   c1.464,0,1.643,1.789,1.643,3.463c0,1.518-0.238,3.326-1.643,3.326C315.287,123.707,314.93,122.695,314.93,120.381 M314.93,111.587   h-2.195v9.494c0,2.763,1.464,4.144,3.937,4.144c3.066,0,3.977-2.256,3.977-4.844c0-2.957-0.99-4.846-3.244-4.846   c-1.445,0-2.136,0.857-2.434,1.324h-0.04V111.587z M304.307,118.514c0.059-0.546,0.494-1.596,1.78-1.596   c1.365,0,1.662,1.012,1.662,1.596H304.307z M309.589,123.357c-0.396,0.136-1.108,0.35-1.801,0.35c-2.65,0-3.54-2.606-3.54-3.891   h5.578v-0.525c0-2.256-1.188-3.756-3.581-3.756c-2.848,0-4.035,1.771-4.035,4.359c0,3.404,1.701,5.33,4.748,5.33   c1.009,0,1.839-0.117,2.631-0.369V123.357z M293.168,113.201h1.82c1.306,0,2.038,0.76,2.038,2.16c0,1.984-1.503,2.275-2.947,2.275   h-0.911V113.201z M290.854,125.01h2.313v-5.758h0.911c2.116,0,2.394,0.72,2.868,2.86l0.634,2.897h2.354l-0.83-3.773   c-0.317-1.42-0.535-2.568-2.434-2.977v-0.039c1.404-0.33,2.71-0.992,2.71-3.113c0-2.626-1.819-3.521-4.393-3.521h-4.134V125.01z    M276.573,126.957h1.899l0.929-4.611h-2.472L276.573,126.957z M269.926,125.01h2.195v-4.064c0-2.238,0.872-3.152,3.087-3.152   v-2.258c-1.899,0-2.532,1.033-3.047,1.928h-0.04v-1.713h-2.195V125.01z M261.34,118.514c0.06-0.546,0.495-1.596,1.781-1.596   c1.365,0,1.661,1.012,1.661,1.596H261.34z M266.622,123.357c-0.396,0.136-1.107,0.35-1.8,0.35c-2.65,0-3.541-2.606-3.541-3.891   h5.578v-0.525c0-2.256-1.187-3.756-3.581-3.756c-2.848,0-4.035,1.771-4.035,4.359c0,3.404,1.701,5.33,4.748,5.33   c1.009,0,1.84-0.117,2.631-0.369V123.357z M250.935,120.381c0-1.557,0.415-3.463,1.741-3.463c1.463,0,1.641,1.789,1.641,3.463   c0,1.518-0.237,3.326-1.641,3.326C251.291,123.707,250.935,122.695,250.935,120.381 M250.935,111.587h-2.197v9.494   c0,2.763,1.464,4.144,3.938,4.144c3.065,0,3.976-2.256,3.976-4.844c0-2.957-0.99-4.846-3.244-4.846   c-1.445,0-2.137,0.857-2.434,1.324h-0.039V111.587z M242.923,113.727h2.196v-2.139h-2.196V113.727z M242.923,125.01h2.196v-9.26   h-2.196V125.01z M234.199,118.514c0.06-0.546,0.495-1.596,1.78-1.596c1.366,0,1.662,1.012,1.662,1.596H234.199z M239.481,123.357   c-0.396,0.136-1.108,0.35-1.801,0.35c-2.65,0-3.541-2.606-3.541-3.891h5.579v-0.525c0-2.256-1.187-3.756-3.581-3.756   c-2.849,0-4.035,1.771-4.035,4.359c0,3.404,1.701,5.33,4.747,5.33c1.009,0,1.841-0.117,2.632-0.369V123.357z M215.841,125.01h2.413   l3.462-9.921h0.04l3.521,9.921h2.414l2.572-13.423h-2.117l-1.919,10.097h-0.039l-3.522-10.097h-1.859l-3.482,10.097h-0.039   l-1.959-10.097h-2.116L215.841,125.01z M197.267,118.514c0.058-0.546,0.494-1.596,1.78-1.596c1.365,0,1.661,1.012,1.661,1.596   H197.267z M202.548,123.357c-0.396,0.136-1.108,0.35-1.8,0.35c-2.651,0-3.542-2.606-3.542-3.891h5.579v-0.525   c0-2.256-1.187-3.756-3.581-3.756c-2.849,0-4.036,1.771-4.036,4.359c0,3.404,1.702,5.33,4.748,5.33c1.009,0,1.84-0.117,2.631-0.369   V123.357z M189.848,125.01h2.196v-9.26h-2.196v4.008c0,1.479-0.752,3.443-2.216,3.443c-0.771,0-0.969-0.271-0.969-2.159v-5.292   h-2.196v6.42c0,2.121,1.167,3.055,2.552,3.055c1.721,0,2.493-1.246,2.789-1.945h0.04V125.01z M175.862,118.514   c0.058-0.546,0.494-1.596,1.78-1.596c1.365,0,1.662,1.012,1.662,1.596H175.862z M181.143,123.357c-0.396,0.136-1.108,0.35-1.8,0.35   c-2.651,0-3.541-2.606-3.541-3.891h5.579v-0.525c0-2.256-1.187-3.756-3.581-3.756c-2.849,0-4.036,1.771-4.036,4.359   c0,3.404,1.701,5.33,4.748,5.33c1.008,0,1.84-0.117,2.631-0.369V123.357z M166.346,125.01h2.196v-4.064   c0-2.238,0.871-3.152,3.086-3.152v-2.258c-1.899,0-2.533,1.033-3.047,1.928h-0.04v-1.713h-2.196V125.01z M158.67,125.01h2.315   v-11.691h3.422v-1.731h-9.159v1.731h3.422V125.01z" fill="#585857"/>
	<path clip-path="url(#SVGID_2_)" d="M143.446,163.965c-11.543-7.057-10.921-28.148-17.534-36.262   c1.017-0.549-0.017-1.264-0.052-3.264c-0.035-1.998,0.766-1.677,0.766-1.677c-0.929-1.002-1.44-0.558-1.367-2.556   c0.315-8.609,13.084-2.894,13.11-19.281c0.003-2-0.385-15.092-0.59-20.17c-1.084-0.098,0.182-6.627-0.525-7.237   c0.749-3.01,1.143-5.352,1.109-7.352c-2.545-11.255-12.273-9.861-15.358-13.638c0.674-0.557,1.445-2.17,2.337-3.333   c-1.834-1.062-3.234-2.279-3.27-4.279c-0.035-1.999,3.222-3.503,3.188-5.502c-0.101-5.796-9.684-10.395-13.983-10.32   c-1,0.018-10.979,7.216-10.914,10.915c0.034,1.999,1.685,3.258,1.719,5.256c0.008,0.5,4.563,9.193,6.127,11.2   c1.96,1.598,2.995-1.839,6.083,0.278c-0.745,1.342-2.356,3.149-2.321,5.148c0.035,1.999,1.756,2.252,2.449,2.731   c-5.932,6.942-5.787,5.879-7.605,12.242c-0.491-1.364-0.794-2.138-0.977-2.549c-0.031,0.233-0.042,0.414-0.04,0.481   c0.004,0.224-0.491-1.672,0.04-0.481c0.102-0.796,0.453-2.32,1.535-3.031c-0.932-1.13-1.74-2.69-2.303-3.542   c0.547-2.863,1.118-6.873-0.729-9.54c-1.436-2.075-4.889-3.292-6.888-3.257c-6.397,0.111-15.213,7.932-15.12,13.23   c0.163,2.118,3.135,4.736,2.467,7.608c-0.326,1.402,1.134-0.238,1.902,0.87c0.456,0.656,0.188,0.203,0.56,0.888   c0.163,0.298,0.205,0.558,0.182,0.787c-0.035,0.377-0.033,0.477,0.083,0.567c0.134,0.104,0.38-0.038,0.55-0.271   c0.121-0.166-0.265,0.543-0.167,0.72c0.17,0.304,0.383-0.163,1.009,0.649c0.569,0.738,1.052,1.314,1.652,1.674   c0.658,0.245,1.492-0.261,3.221-1.077c1.013,1.437-0.677,0.826-0.643,2.825c0.036,2,1.614,0.771,1.648,2.771   c0.036,1.999-4.35,5.38-5.437,7.235c-0.897,1.337-1.323,1.519-1.289,3.518c0.035,1.999,3.622,5.505,3.252,7.211   c-0.372,1.605,0.058,4.029-1.118,5.449c-4.114,4.872-16.238,15.564-16.202,17.563c0.034,1.999,1.3,3.192,0.625,4.603   c-2.321,4.54-5.037,8.471-9.605,7.953c-14.917-1.689-12.237,4.328-7.717,7.447l6.836,2.869c-0.883,1.986,0.017,2.111,0.017,2.111   c1.084,0.098,1.124,0.178,3.106,0.436c2.031,0.264,2.264,0.508,3.147,0.146c4.186-5.039,19.626-18.467,19.662-16.467   c0.034,1.999,0.959,9.182,0.994,11.181c0.036,1.999-7.328,18.616-6.988,24.573l2.394-2.428c0.116,1.35-0.496,2.719-1.324,4.096   c-28.379,5.043-45.719,8.594-45.719,8.594s-13.924,11.926,1.245,9.051c379.07-71.823,479.802-28.787,479.844-28.742   c0.093,0.102,0.798-7.773,0.798-7.773C437.76,125.447,258.229,146.068,143.446,163.965" fill="#2A4A94"/>
</g>
</svg>